<?xml version="1.0" encoding="UTF-8" standalone="no"?>
<!-- Created with Inkscape (http://www.inkscape.org/) -->

<svg
   width="92.012497mm"
   height="103.88595mm"
   viewBox="0 0 92.012497 103.88595"
   version="1.1"
   id="svg1"
   xml:space="preserve"
   xmlns="http://www.w3.org/2000/svg"
   xmlns:svg="http://www.w3.org/2000/svg"><defs
     id="defs1" /><g
     id="layer1"
     transform="translate(-58.500694,-62.761477)"><g
       id="g1"><path
         style="fill:#13835f;fill-opacity:1"
         d="m 102.35434,166.40606 c -4.157313,-0.98315 -14.976445,-7.2176 -21.391839,-12.3269 -2.995603,-2.38573 -9.249293,-8.66945 -11.41804,-11.47286 -3.931075,-5.08147 -6.83432,-10.36634 -8.647469,-15.74127 -2.315754,-6.86486 -2.475767,-8.89766 -2.374053,-30.159789 0.0815,-17.037736 0.08759,-17.207773 0.653353,-18.256249 0.314094,-0.582084 0.909407,-1.372163 1.322916,-1.755733 1.338829,-1.241891 -0.873084,-0.495406 28.136209,-9.495511 14.305063,-4.438131 14.929513,-4.59735 17.157623,-4.374685 1.73417,0.173302 2.51822,0.404185 18.958,5.582647 5.38427,1.696022 12.23036,3.847853 15.21354,4.781847 2.98318,0.933994 5.78115,1.837749 6.21771,2.008346 1.5298,0.597803 2.78048,1.547249 3.50369,2.659811 l 0.72964,1.122444 0.0752,18.388541 c 0.0804,19.670831 0.007,21.149551 -1.30247,26.326041 -3.96814,15.68305 -17.00596,30.17642 -35.6821,39.6657 -6.10181,3.1003 -8.34125,3.7123 -11.15191,3.04762 z m -3.854696,-33.41315 c 0.495504,-0.20784 2.943996,-2.55807 5.857466,-5.6224 2.75334,-2.8959 6.26958,-6.57496 7.81387,-8.17569 1.54428,-1.60073 5.71532,-5.94651 9.26897,-9.65729 3.55366,-3.71078 7.92091,-8.23583 9.70501,-10.055657 4.12246,-4.205023 4.58629,-4.832953 4.58629,-6.208939 0,-1.371549 -0.71768,-2.412111 -2.7336,-3.963419 -3.00859,-2.315205 -4.02634,-1.987631 -8.51252,2.739861 -17.33801,18.270594 -25.904978,27.105284 -26.692743,27.526884 -1.268333,0.67879 -1.927435,0.1943 -8.230928,-6.05038 -3.346979,-3.31575 -6.379799,-6.22441 -6.739601,-6.4637 -0.822871,-0.54725 -2.950848,-0.56833 -3.973765,-0.0394 -0.420867,0.21764 -1.248392,1.07046 -1.838944,1.89516 -0.85261,1.19065 -1.073731,1.73159 -1.073731,2.6267 0,1.36143 0.207686,1.63791 4.752956,6.32723 1.833659,1.89177 5.743792,5.95609 8.689186,9.03183 2.945394,3.07574 5.739518,5.7817 6.209164,6.01325 1.05301,0.51916 1.809227,0.53887 2.91292,0.0759 z"
         id="path1" /></g></g></svg>
