<svg width="347.764" height="392.64" viewBox="0 0 92.012 103.886" xmlns="http://www.w3.org/2000/svg"><path d="M43.854 103.645c-4.158-.984-14.977-7.218-21.392-12.327-2.996-2.386-9.25-8.67-11.418-11.473-3.931-5.082-6.835-10.367-8.648-15.741C.081 57.239-.079 55.206.022 33.944.104 16.906.11 16.736.676 15.688c.314-.583.909-1.373 1.323-1.756 1.338-1.242-.874-.496 28.136-9.496C44.44-.002 45.065-.16 47.292.062c1.735.173 2.519.404 18.958 5.582 5.385 1.696 12.23 3.848 15.214 4.782 2.983.934 5.781 1.838 6.218 2.008 1.53.598 2.78 1.548 3.503 2.66l.73 1.123.075 18.388c.08 19.671.007 21.15-1.302 26.326-3.968 15.683-17.006 30.177-35.682 39.666-6.102 3.1-8.342 3.712-11.152 3.048zM39.999 70.23c.495-.207 2.944-2.558 5.857-5.622 2.754-2.896 6.27-6.575 7.814-8.176 1.545-1.6 5.716-5.946 9.27-9.657 3.553-3.71 7.92-8.236 9.704-10.056 4.123-4.205 4.587-4.833 4.587-6.209 0-1.371-.718-2.412-2.734-3.963-3.009-2.315-4.026-1.988-8.513 2.74-17.338 18.27-25.905 27.105-26.692 27.527-1.269.679-1.928.194-8.231-6.05-3.347-3.316-6.38-6.225-6.74-6.464-.823-.548-2.95-.569-3.974-.04-.42.218-1.248 1.07-1.839 1.895-.852 1.191-1.073 1.732-1.073 2.627 0 1.362.207 1.638 4.753 6.327 1.833 1.892 5.743 5.956 8.689 9.032 2.945 3.076 5.74 5.782 6.209 6.013 1.053.52 1.81.54 2.913.076z" fill="#13835f"/></svg>