<?xml version="1.0" encoding="UTF-8" standalone="no"?>
<!-- Created with Inkscape (http://www.inkscape.org/) -->

<svg
   width="342.31863mm"
   height="130.72261mm"
   viewBox="0 0 342.31863 130.72261"
   version="1.1"
   id="svg1"
   xml:space="preserve"
   sodipodi:docname="truck-interactive.svg"
   inkscape:version="1.4.2 (ebf0e940, 2025-05-08)"
   xmlns:inkscape="http://www.inkscape.org/namespaces/inkscape"
   xmlns:sodipodi="http://sodipodi.sourceforge.net/DTD/sodipodi-0.dtd"
   xmlns="http://www.w3.org/2000/svg"
   xmlns:svg="http://www.w3.org/2000/svg"><sodipodi:namedview
     id="namedview1"
     pagecolor="#ffffff"
     bordercolor="#000000"
     borderopacity="0.25"
     inkscape:showpageshadow="2"
     inkscape:pageopacity="0.0"
     inkscape:pagecheckerboard="0"
     inkscape:deskcolor="#d1d1d1"
     inkscape:document-units="mm"
     inkscape:zoom="0.64151976"
     inkscape:cx="646.90136"
     inkscape:cy="247.06955"
     inkscape:window-width="1456"
     inkscape:window-height="1186"
     inkscape:window-x="1870"
     inkscape:window-y="151"
     inkscape:window-maximized="0"
     inkscape:current-layer="svg1" /><defs
     id="defs1"><marker
       style="overflow:visible"
       id="DartArrow"
       refX="0"
       refY="0"
       orient="auto-start-reverse"
       markerWidth="1"
       markerHeight="1"
       viewBox="0 0 1 1"
       preserveAspectRatio="xMidYMid"><path
         style="fill:context-stroke;fill-rule:evenodd;stroke:none"
         d="M 0,0 5,-5 -12.5,0 5,5 Z"
         transform="scale(-0.5)"
         id="path6" /></marker></defs><g
     id="g54"
     style="opacity:1"
     transform="translate(-23.270398,-22.729227)"
     data-label="Labels"><text
       xml:space="preserve"
       style="font-style:normal;font-variant:normal;font-weight:bold;font-stretch:normal;font-size:5.64444px;font-family:Arial;-inkscape-font-specification:'Arial Bold';text-align:center;writing-mode:lr-tb;direction:ltr;text-anchor:middle;display:inline;opacity:0;fill:#000000;fill-opacity:1;stroke:none;stroke-width:0.3;stroke-linecap:square;stroke-dasharray:none;stroke-dashoffset:0;stroke-opacity:1"
       x="-48.662624"
       y="203.90054"
       id="text50"
       transform="translate(83.006938,-66.523291)"
       data-label="No1-Label"><tspan
         id="tspan50"
         style="font-size:5.64444px;stroke-width:0.3"
         x="-48.662624"
         y="203.90054">Defensa</tspan></text><text
       xml:space="preserve"
       style="font-style:normal;font-variant:normal;font-weight:bold;font-stretch:normal;font-size:5.64444px;font-family:Arial;-inkscape-font-specification:'Arial Bold';text-align:center;writing-mode:lr-tb;direction:ltr;text-anchor:middle;display:inline;opacity:0;fill:#000000;fill-opacity:1;stroke:none;stroke-width:0.3;stroke-linecap:square;stroke-dasharray:none;stroke-dashoffset:0;stroke-opacity:1"
       x="-104.19508"
       y="231.59579"
       id="text51"
       transform="translate(157.48138,-152.57518)"
       data-label="No2-Label"><tspan
         id="tspan51"
         style="stroke-width:0.3"
         x="-104.19508"
         y="231.59579">Motor</tspan></text><text
       xml:space="preserve"
       style="font-style:normal;font-variant:normal;font-weight:bold;font-stretch:normal;font-size:5.64444px;font-family:Arial;-inkscape-font-specification:'Arial Bold';text-align:center;writing-mode:lr-tb;direction:ltr;text-anchor:middle;opacity:0;fill:#000000;fill-opacity:1;stroke:none;stroke-width:0.3;stroke-linecap:square;stroke-dasharray:none;stroke-dashoffset:0;stroke-opacity:1"
       x="-44.835964"
       y="204.2832"
       id="text52"
       transform="translate(83.006938,-66.523291)"
       data-label="No3-Label"><tspan
         id="tspan52"
         style="stroke-width:0.3"
         x="-44.835964"
         y="204.2832">Llantas</tspan></text><text
       xml:space="preserve"
       style="font-style:normal;font-variant:normal;font-weight:bold;font-stretch:normal;font-size:5.64444px;line-height:0;font-family:Arial;-inkscape-font-specification:'Arial Bold';text-align:center;writing-mode:lr-tb;direction:ltr;text-anchor:middle;opacity:0;fill:#000000;fill-opacity:1;stroke:none;stroke-width:0.3;stroke-linecap:square;stroke-dasharray:none;stroke-dashoffset:0;stroke-opacity:1"
       x="-13.55298"
       y="210.8842"
       id="text53"
       transform="translate(83.006938,-66.523291)"
       data-label="No4-Label"><tspan
         id="tspan53"
         style="line-height:1.25;stroke-width:0.3"
         x="-13.55298"
         y="210.8842">Piso Interior</tspan><tspan
         style="font-size:3.52778px;line-height:0.7;stroke-width:0.3"
         x="-13.55298"
         y="215.06302"
         id="tspan54">(Tracto)</tspan></text><text
       xml:space="preserve"
       style="font-style:normal;font-variant:normal;font-weight:bold;font-stretch:normal;font-size:5.64444px;line-height:0.7;font-family:Arial;-inkscape-font-specification:'Arial Bold';text-align:center;writing-mode:lr-tb;direction:ltr;text-anchor:middle;opacity:0;fill:#000000;fill-opacity:1;stroke:none;stroke-width:0.3;stroke-linecap:square;stroke-dasharray:none;stroke-dashoffset:0;stroke-opacity:1"
       x="86.291283"
       y="143.49991"
       id="text55"
       data-label="No5-Label"><tspan
         id="tspan55"
         style="font-size:5.64444px;stroke-width:0.3"
         x="86.291283"
         y="143.49991">Tanque de Diesel</tspan></text><text
       xml:space="preserve"
       style="font-style:normal;font-variant:normal;font-weight:bold;font-stretch:normal;font-size:5.64444px;line-height:0.7;font-family:Arial;-inkscape-font-specification:'Arial Bold';text-align:center;writing-mode:lr-tb;direction:ltr;text-anchor:middle;opacity:0;fill:#000000;fill-opacity:1;stroke:none;stroke-width:0.3;stroke-linecap:square;stroke-dasharray:none;stroke-dashoffset:0;stroke-opacity:1"
       x="99.493271"
       y="137.56859"
       id="text56"
       data-label="No6-Label"><tspan
         id="tspan56"
         style="font-size:5.64444px;stroke-width:0.3"
         x="99.493271"
         y="137.56859">Cabína</tspan></text><text
       xml:space="preserve"
       style="font-style:normal;font-variant:normal;font-weight:bold;font-stretch:normal;font-size:5.64444px;line-height:0.7;font-family:Arial;-inkscape-font-specification:'Arial Bold';text-align:center;writing-mode:lr-tb;direction:ltr;text-anchor:middle;opacity:0;fill:#000000;fill-opacity:1;stroke:none;stroke-width:0.3;stroke-linecap:square;stroke-dasharray:none;stroke-dashoffset:0;stroke-opacity:1"
       x="113.84325"
       y="144.83923"
       id="text57"
       data-label="No7-Label"><tspan
         id="tspan57"
         style="font-size:5.64444px;stroke-width:0.3"
         x="113.84325"
         y="144.83923">Cilindro de Aire</tspan></text><text
       xml:space="preserve"
       style="font-style:normal;font-variant:normal;font-weight:bold;font-stretch:normal;font-size:5.64444px;line-height:0.7;font-family:Arial;-inkscape-font-specification:'Arial Bold';text-align:center;writing-mode:lr-tb;direction:ltr;text-anchor:middle;opacity:0;fill:#000000;fill-opacity:1;stroke:none;stroke-width:0.3;stroke-linecap:square;stroke-dasharray:none;stroke-dashoffset:0;stroke-opacity:1"
       x="147.5179"
       y="135.65526"
       id="text58"
       data-label="No8-Label"><tspan
         id="tspan58"
         style="font-size:5.64444px;stroke-width:0.3"
         x="147.5179"
         y="135.65526">Diferencial</tspan></text><text
       xml:space="preserve"
       style="font-style:normal;font-variant:normal;font-weight:bold;font-stretch:normal;font-size:5.64444px;line-height:0.7;font-family:Arial;-inkscape-font-specification:'Arial Bold';text-align:center;writing-mode:lr-tb;direction:ltr;text-anchor:middle;opacity:0;fill:#000000;fill-opacity:1;stroke:none;stroke-width:0.3;stroke-linecap:square;stroke-dasharray:none;stroke-dashoffset:0;stroke-opacity:1"
       x="193.82054"
       y="134.12459"
       id="text59"
       data-label="No9-Label"><tspan
         id="tspan59"
         style="font-size:5.64444px;stroke-width:0.3"
         x="193.82054"
         y="134.12459">Quinta Rueda</tspan></text><text
       xml:space="preserve"
       style="font-style:normal;font-variant:normal;font-weight:bold;font-stretch:normal;font-size:3.52777px;line-height:1;font-family:Arial;-inkscape-font-specification:'Arial Bold';text-align:center;writing-mode:lr-tb;direction:ltr;text-anchor:middle;opacity:0;fill:#000000;fill-opacity:1;stroke:none;stroke-width:0.3;stroke-linecap:square;stroke-dasharray:none;stroke-dashoffset:0;stroke-opacity:1"
       x="215.63252"
       y="133.8503"
       id="text60"
       data-label="No10-Label"><tspan
         style="font-size:5.64444px;line-height:1;stroke-width:0.3"
         x="215.63252"
         y="133.8503"
         id="tspan61">Chasis</tspan><tspan
         style="line-height:1;stroke-width:0.3"
         x="215.63252"
         y="137.85272"
         id="tspan62">(Caja)</tspan></text><text
       xml:space="preserve"
       style="font-style:normal;font-variant:normal;font-weight:bold;font-stretch:normal;font-size:5.64444px;line-height:1;font-family:Arial;-inkscape-font-specification:'Arial Bold';text-align:center;writing-mode:lr-tb;direction:ltr;text-anchor:middle;opacity:0;fill:#000000;fill-opacity:1;stroke:none;stroke-width:0.3;stroke-linecap:square;stroke-dasharray:none;stroke-dashoffset:0;stroke-opacity:1"
       x="323.16177"
       y="38.840645"
       id="text63"
       data-label="No11-Label"><tspan
         id="tspan63"
         style="stroke-width:0.3"
         x="323.16177"
         y="38.840645">Puertas Int / Ext</tspan></text><text
       xml:space="preserve"
       style="font-style:normal;font-variant:normal;font-weight:bold;font-stretch:normal;font-size:5.64444px;line-height:0.7;font-family:Arial;-inkscape-font-specification:'Arial Bold';text-align:center;writing-mode:lr-tb;direction:ltr;text-anchor:middle;opacity:0;fill:#000000;fill-opacity:1;stroke:none;stroke-width:0.3;stroke-linecap:square;stroke-dasharray:none;stroke-dashoffset:0;stroke-opacity:1"
       x="317.99579"
       y="127.61926"
       id="text64"
       data-label="No12-Label"><tspan
         id="tspan64"
         style="line-height:0.7;stroke-width:0.3"
         x="317.99579"
         y="127.61926">Piso</tspan><tspan
         style="font-size:3.52778px;line-height:0.7;stroke-width:0.3"
         x="317.99579"
         y="131.57037"
         id="tspan65">(Caja)</tspan></text><text
       xml:space="preserve"
       style="font-style:normal;font-variant:normal;font-weight:bold;font-stretch:normal;font-size:5.64444px;line-height:0.7;font-family:Arial;-inkscape-font-specification:'Arial Bold';text-align:center;writing-mode:lr-tb;direction:ltr;text-anchor:middle;opacity:0;fill:#000000;fill-opacity:1;stroke:none;stroke-width:0.3;stroke-linecap:square;stroke-dasharray:none;stroke-dashoffset:0;stroke-opacity:1"
       x="272.07581"
       y="33.483315"
       id="text66"
       data-label="No13-Label"><tspan
         id="tspan66"
         style="font-size:5.64444px;stroke-width:0.3"
         x="272.07581"
         y="33.483315">Paredes Laterales</tspan></text><text
       xml:space="preserve"
       style="font-style:normal;font-variant:normal;font-weight:bold;font-stretch:normal;font-size:5.64444px;line-height:0.7;font-family:Arial;-inkscape-font-specification:'Arial Bold';text-align:center;writing-mode:lr-tb;direction:ltr;text-anchor:middle;opacity:0;fill:#000000;fill-opacity:1;stroke:none;stroke-width:0.3;stroke-linecap:square;stroke-dasharray:none;stroke-dashoffset:0;stroke-opacity:1"
       x="146.17857"
       y="40.562637"
       id="text67"
       data-label="No14-Label"><tspan
         id="tspan67"
         style="stroke-width:0.3"
         x="146.17857"
         y="40.562637">Pared Frontal</tspan></text><text
       xml:space="preserve"
       style="font-style:normal;font-variant:normal;font-weight:bold;font-stretch:normal;font-size:5.64444px;line-height:0.7;font-family:Arial;-inkscape-font-specification:'Arial Bold';text-align:center;writing-mode:lr-tb;direction:ltr;text-anchor:middle;opacity:0;fill:#000000;fill-opacity:1;stroke:none;stroke-width:0.3;stroke-linecap:square;stroke-dasharray:none;stroke-dashoffset:0;stroke-opacity:1"
       x="185.01923"
       y="33.483315"
       id="text68"
       data-label="No15-Label"><tspan
         id="tspan68"
         style="stroke-width:0.3"
         x="185.01923"
         y="33.483315">Techo </tspan><tspan
         style="font-size:3.52778px;stroke-width:0.3"
         x="185.01923"
         y="37.434422"
         id="tspan69">(Caja)</tspan></text><text
       xml:space="preserve"
       style="font-style:normal;font-variant:normal;font-weight:bold;font-stretch:normal;font-size:5.64444px;line-height:0.7;font-family:Arial;-inkscape-font-specification:'Arial Bold';text-align:center;writing-mode:lr-tb;direction:ltr;text-anchor:middle;opacity:0;fill:#000000;fill-opacity:1;stroke:none;stroke-width:0.3;stroke-linecap:square;stroke-dasharray:none;stroke-dashoffset:0;stroke-opacity:1"
       x="76.533295"
       y="51.659969"
       id="text70"
       data-label="No16-Label"><tspan
         id="tspan70"
         style="font-size:5.64444px;stroke-width:0.3"
         x="76.533295"
         y="51.659969">Unidad Refrijeración</tspan></text><text
       xml:space="preserve"
       style="font-style:normal;font-variant:normal;font-weight:bold;font-stretch:normal;font-size:5.64444px;line-height:0.7;font-family:Arial;-inkscape-font-specification:'Arial Bold';text-align:center;writing-mode:lr-tb;direction:ltr;text-anchor:middle;opacity:0;fill:#000000;fill-opacity:1;stroke:none;stroke-width:0.3;stroke-linecap:square;stroke-dasharray:none;stroke-dashoffset:0;stroke-opacity:1"
       x="92.031281"
       y="43.43264"
       id="text71"
       data-label="No17-Label"><tspan
         id="tspan71"
         style="stroke-width:0.3"
         x="92.031281"
         y="43.43264">Escape</tspan></text></g><path
     style="opacity:0.53;fill:#101010;stroke:none"
     d="m 104.18655,76.905822 c 2.95775,0 5.82076,-0.0362 8.73125,0.38503 1.37004,0.1983 2.32458,-0.44829 3.175,0.93788 l -57.414589,0.52917 -0.264583,-25.4 h -0.264583 l 0.264583,25.4 -16.139582,0.26458 v 0.26459 c 18.512305,0 37.109716,-0.0144 55.562498,-0.26357 8.808366,-0.11894 17.676366,0.35946 26.458336,-0.24192 4.93644,-0.33804 9.89888,0.23268 14.81667,0.2409 1.99259,0.003 5.33463,0.25578 6.71951,1.95621 1.3996,1.71849 0.17141,5.11868 -0.6341,6.77504 -0.95033,-1.94142 -0.94426,-4.09908 -2.46823,-5.79613 -2.83971,-3.16224 -9.10797,-3.27635 -12.8776,-2.04623 -1.2997,0.42413 -2.41651,1.50708 -3.70417,1.82105 -1.19543,0.29148 -2.97854,0.0104 -4.23333,0.0129 -2.32483,0.004 -4.89382,-2.07366 -7.40833,-2.38248 -4.5405,-0.55763 -9.99224,0.66929 -11.6139,5.48052 -0.76039,2.25594 -0.55694,4.80166 -0.55694,7.14375 -18.940986,-1.49484 -38.168696,-0.52917 -57.149998,-0.52917 0,-6.09132 -2.010665,-12.9227 -7.9375,-15.875 1.465391,-3.04507 0.866897,-8.13279 0.264584,-11.37708 h -0.264584 c -0.712174,2.99133 -0.872165,8.16184 0,11.1125 -8.674409,-3.60668 -17.182284,-1.32026 -23.812499,5.29166 0.183232,-2.3218 0.529317,-4.53696 0.529167,-6.87916 -5.4e-5,-0.83158 -0.285303,-2.25353 0.235185,-2.9633 1.08545,-1.48018 4.691989,-2.07179 6.379398,-2.55559 5.557826,-1.59352 11.10605,-3.22133 16.668749,-4.79986 v -0.26463 c -5.873127,0.25217 -12.140453,2.509 -17.727082,4.2268 -1.901138,0.58457 -4.905811,0.98639 -6.164017,2.68095 -2.619748,3.52829 -1.773483,10.65375 -1.773483,14.78809 h 0.264583 c 0.609897,-3.27156 2.843308,-4.81278 5.55625,-6.61357 5.296988,-3.516 12.261666,-5.57813 18.256249,-2.41126 5.773053,3.04985 8.022585,9.64221 9.260417,15.63941 h -2.38125 v 0.26458 c 14.271132,0.0394 28.562669,0.793749 42.862499,0.793749 4.370727,0 8.888733,0.32309 13.229166,-0.189039 1.059732,-0.12504 2.626866,0.252269 3.589436,-0.23519 1.13008,-0.57228 0.98062,-3.50637 1.13877,-4.60285 0.35426,-2.45626 1.56523,-4.56116 3.73846,-5.82083 -3.85621,3.94908 -4.18493,11.948649 1.85209,14.287499 v 0.26458 l -75.670838,0.79375 v -0.26458 c 8.606331,-2.0452 8.281932,-16.498319 -1.058333,-16.922919 -2.905612,-0.1321 -5.814898,0.58837 -7.757435,2.92388 -3.970721,4.77402 -1.469151,12.560949 4.582435,13.999039 v 0.26458 l -20.1083321,0.26458 v 0.26459 L 319.29279,96.749571 v -0.26459 l -25.13542,-0.26458 v -0.26458 c 3.97473,-0.76908 5.81079,-5.088189 5.82083,-8.731249 h 0.52917 v 1.05833 h 0.26458 v -1.05833 h 13.49375 c 1.30199,0 3.92887,0.50069 4.86744,-0.61328 0.734,-0.87116 0.42423,-2.56355 0.42423,-3.62006 v -9.26041 c 0,-11.88465 0.26458,-23.81244 0.26458,-35.71876 0,-3.54011 0.26459,-7.05576 0.26459,-10.58333 0,-0.87724 0.3574,-2.81318 -0.42423,-3.43224 -0.69269,-0.54861 -2.18944,-0.27193 -3.01536,-0.27193 h -8.20208 -32.01458 -124.08958 -35.45416 -8.99584 c -0.92687,0 -2.55657,-0.29912 -3.27993,0.42423 -0.76078,0.76078 -0.42423,2.56713 -0.42423,3.54452 v 9.78959 39.42292 m 214.84165,-1.05834 -213.51874,-0.26458 v -50.8 h 158.22083 l 40.74583,-0.26459 h 10.58333 l 3.80911,0.27193 0.42423,3.16766 v 9.525 l -0.26459,38.36458 M 107.36155,25.841232 v 45.50834 h 0.26458 l 0.26458,-44.97917 209.02083,0.26458 -0.26459,47.36042 -206.1104,0.26458 v 0.26459 l 207.16874,0.26458 v -36.77709 -8.99583 l -0.42423,-3.16765 -3.80911,-0.27193 H 303.1532 262.93654 l -155.57499,0.26458 m -47.095839,0.79375 v 2.64583 h 0.264584 l -0.264584,-2.64583 m 0,3.43958 -0.536518,7.34893 -6.871815,4.03878 -4.984619,6.00619 -4.011214,4.8311 4.7625,-3.59984 11.641666,-0.63349 c -1.838554,9.90315 -0.0011,20.45625 0,30.42709 h 0.264584 V 47.801652 H 48.359462 c 2.920816,-4.14644 7.143971,-6.89193 11.641666,-8.99584 l 0.264583,7.14375 h 0.264584 l 0.536518,-7.03003 5.284315,-1.66977 15.345833,-3.47103 1.852083,9.78958 c -5.343528,0 -10.84186,-0.34103 -16.139583,0.41791 -2.561875,0.367 -5.393732,1.31015 -6.614583,3.81543 1.674494,-0.74521 2.95009,-2.16801 4.7625,-2.66482 5.568967,-1.52653 12.517606,-0.51018 18.25625,-0.51018 l 0.264583,2.91041 c -4.973517,0 -9.849641,-0.34765 -14.816667,-0.007 -3.093557,0.21246 -5.908085,1.61542 -6.085416,5.03362 h -1.852083 v 0.26458 h 1.852083 l 0.264583,25.13542 h 0.264583 v -18.52084 c 0,-1.32116 -0.65587,-5.22815 0.424232,-6.14544 0.935262,-0.79428 4.186089,-0.20456 5.396602,-0.20456 h 15.08125 l 0.529166,24.60626 h 0.264584 l 0.264583,-24.60626 8.466666,-0.26458 0.529167,25.4 h 0.264583 c 0.819483,-3.44202 0.529167,-7.32365 0.529167,-10.84791 0,-6.97512 -0.272432,-13.70676 -1.014441,-20.63751 -0.467397,-4.36571 -0.475205,-10.03951 -2.425142,-14.02291 h -0.264584 l 1.5875,11.1125 -8.995833,-0.26459 c -0.135586,-3.1493 -1.106069,-6.91283 -2.38125,-9.78958 l 9.789583,-1.85208 v -0.26459 c -10.327308,0 -20.955131,3.53357 -30.956249,5.82084 l -0.529167,-7.40787 m 33.072916,14.02292 0.529167,3.43958 h -8.73125 l -0.529166,-2.91041 8.731249,-0.52917 m 0.529167,3.70417 0.264583,4.7625 h -8.466666 l -0.529167,-4.49792 8.73125,-0.26458 m -9.525,0.26458 0.264584,4.49792 H 63.705294 c 0.142381,-3.06411 2.599696,-3.95121 5.291667,-4.27437 5.032542,-0.60415 10.276941,-0.22355 15.345833,-0.22355 m -39.687499,4.7625 c -0.0037,1.81782 -1.540813,3.2076 -2.522318,4.6102 -1.508306,2.15542 -1.675774,4.26361 -4.092265,5.70855 v 0.26459 c 1.667025,-0.48848 2.632478,-1.21254 3.175,-2.91042 h 0.264584 c -0.03329,1.38341 -0.763835,2.38688 -0.957888,3.70417 -0.161577,1.09684 0.162345,2.32308 0.164138,3.43958 0.0056,3.45669 -0.691669,8.63594 2.38125,10.84792 -2.357826,-3.79094 -2.408716,-9.08937 -1.852084,-13.49375 h 0.264584 c 0.172135,2.20932 2.087727,1.40411 3.704166,1.33333 3.162384,-0.13848 8.757806,0.95596 11.527954,-0.88808 2.141471,-1.42553 0.422156,-7.316 0.378295,-9.44109 h -0.529166 l -2.38125,8.99584 c -2.566175,0.11018 -5.79296,1.34074 -7.672916,-0.79375 l 1.852083,0.52916 c -0.5454,-1.59972 -2.647626,-2.08947 -3.057,-3.48858 -0.237889,-0.81302 0.651499,-1.92362 1.021179,-2.59684 2.199987,-4.00635 6.117944,-2.84984 10.237904,-3.175 v -0.26458 c -1.821243,-0.4336 -7.58021,-1.25863 -9.157318,-0.25723 -1.42851,0.90703 -2.384237,3.77285 -3.013515,5.28431 h -0.264583 c 0.183928,-7.82333 7.359135,-6.61458 12.964582,-6.61458 v -0.26458 c -2.412324,-0.44783 -8.470194,-1.24597 -10.571899,0.15965 -1.45753,0.97479 -1.653541,2.98722 -3.186433,3.8091 0.841789,-1.27216 2.412417,-3.03502 1.322916,-4.49792 m -1.587499,0.52917 -5.291667,8.99583 c 2.37261,-1.96573 4.503771,-6.21109 5.820833,-8.99583 h -0.529166 m 38.364582,15.875 v -0.26458 c -2.027574,-0.16002 -6.615415,0.50143 -8.142672,-0.87787 -0.978759,-0.88394 -1.031276,-2.14219 -1.161637,-3.35547 -0.301629,-2.80731 -1.289909,-8.9644 1.897203,-10.46859 1.048305,-0.49477 2.312746,-0.37925 3.438356,-0.37933 1.48032,-9e-5 3.685878,-0.2808 4.922963,0.72455 1.064979,0.86548 1.144149,2.52219 1.314543,3.77337 0.503733,3.69892 0.363294,7.49196 -1.73959,10.58334 3.319258,-1.74231 2.117894,-7.39657 2.116667,-10.58334 -5.09e-4,-1.33099 0.119453,-3.0927 -0.907462,-4.11962 -1.596374,-1.59637 -7.091129,-1.27848 -9.142829,-0.76639 -1.24503,0.31075 -1.954943,1.29241 -2.244259,2.50476 -0.629709,2.63879 -1.083049,10.15479 0.623686,12.37499 1.689497,2.19777 6.692365,0.95433 9.025031,0.85418 m -6.35,-14.02292 v 0.26458 c 1.568993,0.46378 3.167095,0.0482 4.758414,0.30378 1.954564,0.31387 2.271987,3.98545 0.758642,5.00422 -3.41607,2.29966 -9.691163,-1.15342 -6.046223,-5.04341 -1.869064,-0.40641 -1.782215,3.61387 -1.436023,4.75106 0.48441,1.59123 2.412708,1.70009 3.817273,1.81759 1.230182,0.1029 3.628477,0.0388 4.626534,-0.7715 1.388732,-1.12754 1.199677,-5.08252 -0.189046,-6.12992 -1.560927,-1.17729 -4.497885,-0.21123 -6.289571,-0.1964 m -31.485416,2.64583 -0.264583,7.93751 c -1.716841,-0.60371 -1.527402,-6.61456 -1.058333,-8.20209 l 1.322916,0.26458 m 12.964583,2.38125 c 0,2.06643 0.594024,4.22263 -1.852084,4.76251 l 1.852084,-4.76251 m -11.90625,2.38125 -0.264583,0.26459 0.264583,-0.26459 m 1.322917,0.79376 0.264583,2.11666 -1.852083,0.26459 c 0.01507,-1.27599 0.125061,-2.31685 1.5875,-2.38125 m -4.58611,0.97014 -0.0882,0.17638 0.0882,-0.17638 m -12.347223,5.11527 c 2.659011,0 6.337699,0.83734 6.35,-2.64583 -2.080747,0.0429 -5.679294,0.32724 -6.35,2.64583 M 9.9948799,68.174572 v 2.91041 h 0.5291671 v -2.91041 H 9.9948799 m 71.4374981,9.525 v -0.26459 c -1.408587,0 -2.834283,0.0714 -4.233334,-0.11228 -1.131657,-0.14859 -2.709451,0.10968 -3.675381,-0.57653 -1.704926,-1.21122 -1.581525,-4.59439 0.247434,-5.6177 1.960426,-1.09687 8.547548,-1.02148 9.510917,1.28351 0.919114,2.19912 -0.411796,3.61361 -1.585053,5.28759 2.33349,-0.924 3.591326,-5.20566 1.283925,-6.95124 -1.560337,-1.18041 -4.715918,-1.09292 -6.575592,-0.96258 -3.312152,0.23214 -7.374251,4.56861 -3.644754,7.45671 1.880885,1.45654 6.376451,0.45711 8.671838,0.45711 m -67.733332,-6.35 c -0.20876,2.64528 0.342495,8.69331 -1.5875,10.58333 0.133309,-3.10483 -0.06759,-7.87354 1.5875,-10.58333 m -3.439583,0.79375 c -0.8115891,3.4089 -0.9934631,9.60358 0,12.96458 h 0.264584 c 0,-3.64804 1.140087,-9.61709 -0.264584,-12.96458 m 69.849998,3.175 h 0.264583 l 0.264584,-2.38125 0.79375,2.64583 h -1.058334 v 0.52917 c 3.936751,-0.30673 -0.179026,-6.45009 -0.263356,-2.123 l -0.0012,1.32925 m -28.006635,-1.92028 c -0.780545,0.35323 -1.11796,1.58244 -0.21967,2.02521 0.949494,0.46801 3.434153,0.33426 4.329694,-0.21967 0.796305,-0.49254 0.661006,-1.60184 -0.219669,-1.88719 -0.950181,-0.30788 -2.97404,-0.33301 -3.890355,0.0817 m 4.194135,0.59736 v 1.05833 l -4.233333,-0.26458 c 0.809047,-1.24794 2.890751,-0.79375 4.233333,-0.79375 m -37.835415,5.29167 c 7.789104,-3.68392 16.706284,-5.68377 22.102304,3.175 1.64386,2.69876 2.33129,5.76022 3.297695,8.73125 0.854135,-2.05469 -0.639838,-5.51512 -1.529723,-7.40834 -3.342096,-7.11026 -10.239115,-10.22751 -17.784859,-8.08878 -2.036062,0.5771 -5.077494,1.61939 -6.085417,3.59087 m 284.427077,-2.91042 -0.26458,4.49792 c -4.08987,0 -7.53879,-1.94213 -11.64167,-1.84821 -4.10576,0.094 -7.51252,2.25425 -11.64167,1.81962 -2.62561,-0.27637 -4.87166,-1.7643 -7.67291,-1.81941 -4.30684,-0.0847 -7.87303,2.08308 -12.17083,1.83656 -2.78409,-0.15968 -5.25621,-1.81859 -8.20209,-1.83942 -3.2203,-0.0228 -5.97946,1.75697 -8.99583,1.84677 -15.75537,0.46906 -31.59717,0.004 -47.36042,0.004 -7.84898,0 -15.699,-0.0377 -23.54791,2e-4 -2.60409,0.0126 -6.72351,1.2 -9.17344,0.10473 -1.24968,-0.55869 -2.11651,-2.91574 -2.73281,-4.07368 l 143.40416,-0.52917 m 14.2875,0.26458 v 8.99584 H 303.6824 l -0.52917,-9.26042 14.02292,0.26458 M 178.2699,87.224532 v 3.43958 l 61.38334,-0.26458 v -0.26459 l -45.50834,-0.26458 h -10.31875 l -3.69681,-0.42423 -0.27194,-4.60285 60.06042,-0.26459 0.26458,5.55625 h 0.26459 l 0.26458,-3.175 h 0.52917 v 1.32292 h 0.52916 l 0.26459,-1.32292 h 0.26458 c 0.15894,3.70227 1.73355,7.166219 5.29167,8.731249 v 0.26459 H 138.84696 v -0.26459 c 5.31299,-4.048529 5.04025,-8.968469 1.5875,-14.022909 3.51728,2.05031 3.9403,6.87584 4.23334,10.58333 h 0.26458 l 0.15577,-3.89321 1.69631,-4.57346 h 1.05834 v -2.91041 h -1.05834 c -0.88983,-1.45996 -3.92049,-2.22802 -5.55625,-2.52294 -5.50557,-0.99264 -11.85875,-0.14688 -17.4625,-0.38748 1.56293,-1.18409 6.19774,-1.05833 8.20209,-1.05833 h 18.78541 c 2.11132,0 5.91786,-0.74142 7.8342,0.15964 1.71956,0.80853 1.80951,3.78514 3.33464,4.90909 1.28272,0.9453 3.23126,1.33121 4.70616,1.91598 3.75767,1.48983 7.55947,3.33404 11.64166,3.33404 m -157.16249,-1.5875 -10.847917,-0.26459 c -0.3562571,1.49638 -0.9072701,5.22888 0.196396,6.47862 0.66656,0.754779 1.812455,0.622469 2.714021,0.688609 2.133974,0.15657 5.956635,0.74905 7.87809,-0.408919 1.969734,-1.18705 0.955824,-5.34196 1.38641,-7.28747 1.099686,-4.96871 6.617583,-6.60194 11.108416,-5.64384 3.619239,0.77215 6.075263,3.74999 7.014316,7.23134 0.455581,1.68898 0.15096,4.4834 1.716934,5.55625 0,-4.1431 -0.880684,-9.24151 -4.237213,-12.08387 -3.518447,-2.97947 -10.75343,-3.23332 -14.204204,0.0367 -1.700962,1.61188 -2.189807,3.52465 -2.725249,5.69712 m -2.645834,-6.08542 c -1.556865,0.0139 -7.447571,2.13545 -5.547879,4.60285 0.438881,0.57004 1.480901,0.43472 2.108296,0.42036 3.098036,-0.071 3.384568,-2.35784 3.439583,-5.02321 m 24.341666,0.79375 v 0.26458 c 8.216391,1.0384 17.44824,1.03839 25.664582,0 -2.094748,-1.11367 -5.355349,-0.52916 -7.672916,-0.52916 -5.933217,0 -12.106043,-0.47925 -17.991666,0.26458 m -25.135416,0 -0.264583,3.70417 -1.852083,-0.26459 1.5875,-1.5875 v -0.26458 l -3.96875,1.85208 c 0.74511,-1.92199 2.445193,-3.22819 4.497916,-3.43958 m 129.645834,1.05833 v 1.85209 h -0.52917 v -1.85209 h 0.52917 m 94.98541,0.52917 -0.79375,2.38125 c -6.31142,-0.79766 -12.95176,-0.26458 -19.31458,-0.26458 -9.68985,0 -19.39627,-0.26459 -29.10417,-0.26459 h -11.1125 c -1.67667,1.1e-4 -3.38631,-0.15798 -3.70417,1.85209 -5.20594,0.65793 -9.71363,-3.21512 -14.81666,-3.96875 h 6.87916 l 17.19792,0.2607 54.76875,0.004 M 128.7928,81.668322 c -3.23959,4.74237 -4.09341,10.45969 1.5875,14.022909 v 0.26459 l -13.49375,0.26458 c 0.9108,-1.12958 2.12215,-1.97378 2.96328,-3.175 2.80751,-4.009349 1.0321,-7.335939 -0.84662,-11.112499 3.69165,2.62392 2.47949,6.73591 4.23334,10.31875 0.75174,-3.16629 -0.88261,-6.47809 -1.5875,-9.525 h 4.23333 c -0.99886,2.58933 -2.86488,6.8553 -1.5875,9.525 1.07386,-3.82136 0.3816,-8.44652 4.49792,-10.58333 m 169.06874,0 1.5875,2.38125 -1.5875,-2.38125 m 4.49791,0 v 2.38125 h -1.85208 l -0.79375,-2.38125 h 2.64583 m -57.67916,0.26458 c -0.60153,1.08373 -1.08585,2.1591 -2.38125,2.38125 0.52246,-1.1869 1.1008,-2.0186 2.38125,-2.38125 m 13.22917,0 1.5875,2.38125 -1.5875,-2.38125 m 4.7625,0 c -1.23373,2.40913 -2.06214,2.70611 -3.175,0 h 3.175 m 2.11666,0 -2.11666,2.38125 c 0.29491,-1.23951 0.87318,-2.02459 2.11666,-2.38125 m 13.22917,0 1.5875,2.11667 c -0.93192,-0.31519 -1.64244,-1.10657 -1.5875,-2.11667 m 4.49791,0 c -0.83648,2.47929 -1.8389,2.0755 -2.91041,0 h 2.91041 m 2.38125,0 -2.11666,2.11667 c 0.32885,-1.16758 0.94913,-1.78778 2.11666,-2.11667 m -227.541655,1.05833 0.79375,2.38125 -11.90625,-0.26458 c 0.222209,-2.91284 8.152373,-2.10997 10.583333,-2.11667 -1.49613,-1.13347 -8.205046,-1.18791 -10.050084,-0.64226 -1.424219,0.4212 -2.247836,2.52498 -0.947681,3.59024 0.727668,0.5962 1.914914,0.51835 2.795682,0.48119 2.436548,-0.10277 7.026529,0.56529 9.199987,-0.45056 1.547475,-0.72328 0.406823,-2.31148 -0.468737,-2.97861 m 34.131249,-0.26458 v 0.26458 c 2.407185,0 7.835542,-1.13782 8.202082,2.11667 l -9.260415,0.26458 0.79375,-2.38125 v -0.26458 c -1.430226,0.43032 -2.263573,2.51065 -0.513656,3.24319 1.650077,0.69074 4.298542,0.19639 6.069906,0.19639 v 0.26459 l -6.35,0.52916 v 0.26459 c 2.444707,0.44711 7.654167,-1.40208 8.202083,2.11666 l -9.260417,0.26459 0.79375,-2.64584 c -1.379219,0.50559 -2.240569,2.51177 -0.513655,3.29035 1.63195,0.73578 6.711145,0.78381 8.449928,0.29908 2.54759,-0.71018 1.586776,-3.46749 -0.527939,-3.85401 1.836895,-0.5823 5.230489,-2.99845 1.583415,-4.27191 -2.134432,-0.74531 -5.558391,-0.36423 -7.668832,0.30316 m -9.789583,6.08542 v -0.26459 l -9.525,-0.26458 -4.496899,-0.31195 -3.176018,-3.92138 23.01875,-0.26459 c -1.866351,-0.89691 -4.328426,-0.52916 -6.35,-0.52916 -3.987426,0 -7.934019,-0.01 -11.90625,-0.28827 -1.424154,-0.0998 -4.677375,-0.9804 -5.392516,0.85275 -0.729974,1.87117 1.744685,4.3694 3.27585,4.98931 3.938455,1.59454 10.382013,0.0885 14.552083,0.002 m 168.804159,-5.7402 c 6.16849,-0.84324 7.4811,8.61439 1.32292,9.620949 -6.22982,1.01829 -7.65814,-8.754909 -1.32292,-9.620949 m 20.10834,0 c 6.26789,-0.84918 7.30633,8.85771 1.05833,9.625449 -6.17572,0.75885 -7.23388,-8.788769 -1.05833,-9.625449 m 19.84374,0.007 c 6.165,-1.05326 7.68558,8.478 1.5875,9.577469 -6.23627,1.12439 -7.90132,-8.498769 -1.5875,-9.577469 m -177.79999,0.32972 c 6.41898,-0.0537 6.35593,9.631559 0,9.629519 -6.16286,-0.002 -6.06259,-9.578839 0,-9.629519 m -82.549997,0.19945 c 6.482372,-1.15758 8.014869,8.63757 1.5875,9.568279 -5.912483,0.85616 -7.378844,-8.534099 -1.5875,-9.568279 m 105.304167,9.173249 c -0.29491,-1.131729 -0.95732,-0.794129 -0.79375,0.26458 -6.01544,-0.49199 -6.64303,-9.385169 -0.26458,-9.520919 5.86475,-0.12481 7.0788,8.63568 1.05833,9.256339 m -104.245834,-7.937499 1.322917,0.26458 c -0.18648,-1.06499 -0.768786,-1.22887 -1.322917,-0.26458 m 217.752074,0.26458 c 1.93385,-0.32235 0.32235,-1.93385 0,0 m 2.64584,-1.05833 1.5875,0.79375 c -0.30049,-0.90546 -0.68002,-1.00111 -1.5875,-0.79375 m 17.82426,0.0414 c -0.62346,0.34724 -0.005,1.15211 0.53324,0.73455 0.47671,-0.3695 -0.0325,-1.01341 -0.53324,-0.73455 m 2.28407,-0.0414 c 0.99419,1.79133 2.06412,-0.47036 0,0 m 18.78541,0 c -1.98841,-0.29471 -0.74795,1.86854 0,0 m 1.32292,0 c 0.52264,0.91861 1.06486,0.91862 1.5875,0 h -1.5875 m -158.22082,1.05833 1.5875,-0.79375 c -0.90751,-0.20736 -1.28702,-0.11172 -1.5875,0.79375 m -23.01875,0.52917 c 0.92341,-0.15365 1.20317,-0.38096 1.05833,-1.32292 l -1.05833,1.32292 m 3.33443,-1.0169 c -0.45845,0.30634 0.0163,1.01728 0.47488,0.71087 0.45847,-0.30634 -0.0163,-1.01728 -0.47488,-0.71087 m -84.032351,0.22315 c -1.885723,-0.44115 -0.905405,1.59326 0,0 m 106.627081,1.32291 1.32292,-1.05833 c -0.91064,-0.0366 -1.166,0.15808 -1.32292,1.05833 m -101.864581,0.79375 c 0.441151,-1.88572 -1.593267,-0.9054 0,0 m 96.837501,-0.26458 1.05833,-1.32292 c -0.9234,0.15364 -1.20317,0.38095 -1.05833,1.32292 m 118.54495,-0.7864 c -2.65387,1.41076 -0.55784,5.5776 2.09342,4.17842 2.65405,-1.40067 0.63852,-5.63068 -2.09342,-4.17842 m 3.95713,-0.27193 c 0.15365,0.92341 0.38095,1.20316 1.32291,1.05833 l -1.32291,-1.05833 m 19.57916,2.38125 h -0.26458 c -0.74001,1.39197 -3.20412,2.71719 -3.71192,0.26049 -0.57374,-2.77565 2.7499,-1.71859 3.71192,-0.52508 0.34064,-2.55533 -3.96841,-2.80105 -4.42015,-0.26356 -0.59954,3.36777 3.87893,3.60617 4.68473,0.52815 m 0.52917,-2.38125 v 1.32291 l 1.32292,-0.26458 -1.32292,-1.05833 m 19.31458,2.64583 h -0.26458 c -0.87282,1.59031 -3.8612,1.9777 -3.55024,-0.51855 0.28183,-2.26247 2.85419,-1.42151 3.55024,-0.0106 0.73939,-2.35536 -3.48222,-2.82213 -4.11839,-0.52508 -0.90382,3.26345 3.71118,4.35355 4.38297,1.05425 m 0.79375,-2.64583 v 1.32291 l 1.32292,-0.26458 -1.32292,-1.05833 m -273.04999,0.26458 v 6.08542 l -10.054167,-0.52917 -0.79375,-5.55625 H 21.10738 m 9.789786,0.17781 c -2.89396,0.23292 -2.612493,4.79903 0.263358,4.74271 2.964524,-0.0581 2.740688,-4.98449 -0.263358,-4.74271 m 81.230964,-0.0222 c -2.98535,0.78638 -1.67549,5.33614 1.3074,4.492 2.71646,-0.76874 1.43714,-5.21494 -1.3074,-4.492 m 21.69298,0.0419 c -2.85072,1.06971 -1.35202,5.5379 1.57464,4.40522 2.61609,-1.01247 1.127,-5.419 -1.57464,-4.40522 m 112.97585,0.86091 c 0.94199,0.14484 1.16926,-0.13492 1.32291,-1.05833 l -1.32291,1.05833 m 20.10833,0 c 0.942,0.14484 1.16926,-0.13492 1.32292,-1.05833 l -1.32292,1.05833 m 21.43125,-1.05845 c -1.9339,0.32235 -0.3223,1.93386 0,0 m -172.34889,0.5706 c -0.45847,0.30635 0.0163,1.01729 0.47488,0.71088 0.45846,-0.30635 -0.0163,-1.01729 -0.47488,-0.71088 m 134.78295,-0.18618 c 2.33443,-0.55931 3.15032,2.94167 0.78477,3.45796 -2.26076,0.49342 -3.04681,-2.91598 -0.78477,-3.45796 m -219.612116,0.35053 c 2.213445,0.15852 1.896694,3.87529 -0.258459,3.60903 -2.084466,-0.25752 -1.892108,-3.76304 0.258459,-3.60903 m 77.525976,1.11713 1.32292,-1.05833 c -0.94198,-0.14483 -1.16928,0.13492 -1.32292,1.05833 m 3.97181,-1.1794 c 2.1425,-0.16645 2.40691,3.34717 0.25111,3.50594 -2.17381,0.16009 -2.41901,-3.33751 -0.25111,-3.50594 m 21.69278,0 c 2.03879,-0.35117 2.575,3.0483 0.51875,3.46491 -2.22129,0.45003 -2.70966,-3.08753 -0.51875,-3.46491 m -107.156254,0.12107 v 1.5875 h 0.529167 v -1.5875 h -0.529167 m 20.401701,0.19639 c -1.419547,0.6105 -1.449136,2.97514 -0.01327,3.57596 2.112218,0.88384 4.934049,-0.14505 7.128234,0.0178 1.324847,0.0983 3.23463,0.59186 4.45872,-0.13331 1.641683,-0.97255 0.311516,-2.90405 -1.019338,-3.33179 -2.322735,-0.74652 -8.295904,-1.09991 -10.554346,-0.12862 m -33.366284,1.65569 -0.79375,0.26459 v -1.05834 l 1.058333,0.52917 c -1.43067,-3.55692 -2.065783,2.9378 -0.264583,0.26458 m 45.243748,1.05834 H 47.565712 l 0.424231,-1.80472 2.486185,-0.31195 8.162886,0.007 0.832947,2.10932 m 200.818749,-2.38094 v 1.05833 h 0.52916 v -1.05833 l 0.79375,1.32291 h 0.26459 v -1.32291 h 0.52916 c 0.0318,3.8484 2.05797,7.068959 5.55625,8.731249 v 0.26458 l -13.22916,-0.26458 v -0.26459 c 3.41883,-1.62679 5.02466,-4.807789 5.02708,-8.466659 h 0.52917 m 19.84374,0 0.52917,1.32291 h 0.26458 v -1.32291 h 0.52917 v 1.05833 h 0.26458 l 0.79375,-1.05833 c 0.0106,3.85357 1.95312,7.156359 5.55625,8.731249 v 0.26458 h -13.75833 v -0.26458 c 4.36511,-1.90795 4.25937,-5.018739 5.82083,-8.731249 m -142.34582,1.5875 c 0.90027,-0.15692 1.09496,-0.41229 1.05833,-1.32292 l -1.05833,1.32292 m -7.40833,-0.79375 -0.26459,1.05833 c 1.1822,0.18232 1.4037,-0.67974 0.26459,-1.05833 m -95.779171,0.26458 v 1.5875 h 0.529167 v -1.5875 h -0.529167 m 220.662491,0.26458 c -1.93383,0.32235 -0.32235,1.93385 0,0 m 19.20942,0.30602 c -0.45846,0.30634 0.0163,1.01728 0.47491,0.71088 0.45853,-0.30638 -0.0163,-1.01728 -0.47491,-0.71088 m 20.10834,0 c -0.45847,0.30634 0.0163,1.01729 0.4749,0.71088 0.45847,-0.30635 -0.0163,-1.0173 -0.4749,-0.71088 m -47.51984,-0.0414 c 0.32235,1.93385 1.93383,0.32234 0,0 m 20.10833,0 c 0.15366,0.92341 0.38097,1.20315 1.32292,1.05833 l -1.32292,-1.05833 m 20.10833,0 1.05834,1.32291 c 0.0366,-0.91063 -0.15807,-1.166 -1.05834,-1.32291 m -171.71457,1.32291 1.32292,0.26459 v -1.32292 l -1.32292,1.05833 m -6.45515,-0.48773 c -0.45846,0.30635 0.0163,1.0173 0.47488,0.71088 0.45847,-0.30635 -0.0163,-1.01728 -0.47488,-0.71088 m -81.386517,-0.0414 c -0.441154,1.88573 1.593269,0.9054 0,0 m 109.272917,2.1166 c 0.77802,-0.42865 0.9258,-0.71062 0.79375,-1.5875 -0.77804,0.42866 -0.9258,0.71062 -0.79375,1.5875 m -104.510417,0 c 1.885725,0.44116 0.905407,-1.59326 0,0 m 99.378187,-0.75231 c -0.45847,0.30635 0.0163,1.01728 0.47488,0.71087 0.45845,-0.30634 -0.0163,-1.01729 -0.47488,-0.71087 m 118.63847,0.75231 c -0.90542,-1.59326 -1.88572,0.44116 0,0 m 1.32292,0 c 0.87688,0.13206 1.15883,-0.0157 1.5875,-0.79375 -0.8769,-0.13205 -1.15883,0.0157 -1.5875,0.79375 m 17.19792,0 1.5875,0.26459 c -0.33156,-1.08129 -0.99421,-1.30711 -1.5875,-0.26459 m 2.91041,0 c 2.06409,0.47036 0.99419,-1.79133 0,0 m 17.19792,0 h 1.5875 c -0.52264,-0.91861 -1.06486,-0.91862 -1.5875,0 m 2.91041,0 c 0.87686,0.13205 1.15885,-0.0157 1.5875,-0.79375 -0.90869,-0.21253 -1.23616,-0.0799 -1.5875,0.79375 m -178.32915,0.793749 c 1.93387,-0.322349 0.32234,-1.933839 0,0 M 29.574046,91.722482 v 0.52917 h 1.5875 v -0.52917 h -1.5875 m 81.227084,-0.26458 c 0.21802,1.249079 1.10489,1.249079 1.32292,0 z"
     id="path1" /><g
     id="layer1"
     transform="translate(59.73654,-89.252517)"
     data-label="Numbers"><g
       id="g3"
       data-label="No1"><g
         id="g4"
         style="fill:none;stroke:#000000;stroke-width:0.4;stroke-dasharray:none;stroke-opacity:1"><circle
           style="fill:none;stroke:#000000;stroke-width:0.4;stroke-linecap:round;stroke-dasharray:none;stroke-opacity:1"
           id="path3"
           cx="-48.809544"
           cy="194.18475"
           r="3.8364582" /><text
           xml:space="preserve"
           style="font-weight:600;font-size:4.6365px;font-family:Poppins;-inkscape-font-specification:'Poppins, Semi-Bold';text-align:start;writing-mode:lr-tb;direction:ltr;text-anchor:start;fill:#000000;fill-opacity:1;stroke:none;stroke-width:0.4;stroke-linecap:round;stroke-dasharray:none;stroke-opacity:1"
           x="-48.615978"
           y="195.851"
           id="text3"><tspan
             id="tspan3"
             style="font-style:normal;font-variant:normal;font-weight:bold;font-stretch:normal;font-family:Arial;-inkscape-font-specification:'Arial Bold';text-align:center;text-anchor:middle;fill:#000000;fill-opacity:1;stroke:none;stroke-width:0.4;stroke-dasharray:none;stroke-opacity:1"
             x="-48.615978"
             y="195.851">1</tspan></text></g><path
         style="fill:none;fill-opacity:1;stroke:#000000;stroke-width:0.329406;stroke-linecap:square;stroke-dasharray:none;stroke-dashoffset:0;stroke-opacity:1;marker-end:url(#DartArrow)"
         d="m -48.809544,190.25326 v -5.2655"
         id="path4" /></g><g
       id="g6"
       transform="translate(6.0161827,-50.605122)"
       data-label="No2"><g
         id="g5"
         style="fill:none;stroke:#000000;stroke-width:0.4;stroke-dasharray:none;stroke-opacity:1"><circle
           style="fill:none;stroke:#000000;stroke-width:0.4;stroke-linecap:round;stroke-dasharray:none;stroke-opacity:1"
           id="circle5"
           cx="-48.809544"
           cy="194.18475"
           r="3.8364582" /><text
           xml:space="preserve"
           style="font-weight:600;font-size:4.6365px;font-family:Poppins;-inkscape-font-specification:'Poppins, Semi-Bold';text-align:start;writing-mode:lr-tb;direction:ltr;text-anchor:start;fill:#000000;fill-opacity:1;stroke:none;stroke-width:0.4;stroke-linecap:round;stroke-dasharray:none;stroke-opacity:1"
           x="-48.615978"
           y="195.851"
           id="text5"><tspan
             id="tspan5"
             style="font-style:normal;font-variant:normal;font-weight:bold;font-stretch:normal;font-family:Arial;-inkscape-font-specification:'Arial Bold';text-align:center;text-anchor:middle;fill:#000000;fill-opacity:1;stroke:none;stroke-width:0.4;stroke-dasharray:none;stroke-opacity:1"
             x="-48.615978"
             y="195.851">2</tspan></text></g><path
         style="fill:none;fill-opacity:1;stroke:#000000;stroke-width:0.329406;stroke-linecap:square;stroke-dasharray:none;stroke-dashoffset:0;stroke-opacity:1;marker-end:url(#DartArrow)"
         d="m -48.892622,198.11098 0.09354,7.36299"
         id="path5" /></g><g
       id="g21"
       transform="translate(20.234922,-0.18472564)"
       data-label="No3"><g
         id="g20"
         style="fill:none;stroke:#000000;stroke-width:0.4;stroke-dasharray:none;stroke-opacity:1"
         transform="translate(-0.09354433,7.8577241)"><circle
           style="fill:none;stroke:#000000;stroke-width:0.4;stroke-linecap:round;stroke-dasharray:none;stroke-opacity:1"
           id="circle20"
           cx="-48.809544"
           cy="194.18475"
           r="3.8364582" /><text
           xml:space="preserve"
           style="font-weight:600;font-size:4.6365px;font-family:Poppins;-inkscape-font-specification:'Poppins, Semi-Bold';text-align:start;writing-mode:lr-tb;direction:ltr;text-anchor:start;fill:#000000;fill-opacity:1;stroke:none;stroke-width:0.4;stroke-linecap:round;stroke-dasharray:none;stroke-opacity:1"
           x="-48.615978"
           y="195.851"
           id="text20"><tspan
             id="tspan20"
             style="font-style:normal;font-variant:normal;font-weight:bold;font-stretch:normal;font-family:Arial;-inkscape-font-specification:'Arial Bold';text-align:center;text-anchor:middle;fill:#000000;fill-opacity:1;stroke:none;stroke-width:0.4;stroke-dasharray:none;stroke-opacity:1"
             x="-48.615978"
             y="195.851">3</tspan></text></g><path
         style="fill:none;fill-opacity:1;stroke:#000000;stroke-width:0.329406;stroke-linecap:square;stroke-dasharray:none;stroke-dashoffset:0;stroke-opacity:1;marker-end:url(#DartArrow)"
         d="m -48.892622,198.11098 -3.274056,-9.19436"
         id="path20" /><path
         style="fill:none;fill-opacity:1;stroke:#000000;stroke-width:0.329406;stroke-linecap:square;stroke-dasharray:none;stroke-dashoffset:0;stroke-opacity:1;marker-end:url(#DartArrow)"
         d="m -48.892622,198.11098 3.274047,-9.19436"
         id="path21" /></g><g
       id="g23"
       transform="translate(34.798493,4.770761)"
       data-label="No4"><g
         id="g22"
         style="fill:none;stroke:#000000;stroke-width:0.4;stroke-dasharray:none;stroke-opacity:1"><circle
           style="fill:none;stroke:#000000;stroke-width:0.4;stroke-linecap:round;stroke-dasharray:none;stroke-opacity:1"
           id="circle21"
           cx="-48.809544"
           cy="194.18475"
           r="3.8364582" /><text
           xml:space="preserve"
           style="font-weight:600;font-size:4.6365px;font-family:Poppins;-inkscape-font-specification:'Poppins, Semi-Bold';text-align:start;writing-mode:lr-tb;direction:ltr;text-anchor:start;fill:#000000;fill-opacity:1;stroke:none;stroke-width:0.4;stroke-linecap:round;stroke-dasharray:none;stroke-opacity:1"
           x="-48.615978"
           y="195.851"
           id="text21"><tspan
             id="tspan21"
             style="font-style:normal;font-variant:normal;font-weight:bold;font-stretch:normal;font-family:Arial;-inkscape-font-specification:'Arial Bold';text-align:center;text-anchor:middle;fill:#000000;fill-opacity:1;stroke:none;stroke-width:0.4;stroke-dasharray:none;stroke-opacity:1"
             x="-48.615978"
             y="195.851">4</tspan></text></g><path
         style="fill:none;fill-opacity:1;stroke:#000000;stroke-width:0.3;stroke-linecap:square;stroke-dasharray:none;stroke-dashoffset:0;stroke-opacity:1;marker-end:url(#DartArrow)"
         d="M -48.809544,190.14408 V 165.58567"
         id="path22" /></g><g
       id="g25"
       transform="translate(50.471496,6.2504921)"
       data-label="No5"><g
         id="g24"
         style="fill:none;stroke:#000000;stroke-width:0.4;stroke-dasharray:none;stroke-opacity:1"><circle
           style="fill:none;stroke:#000000;stroke-width:0.4;stroke-linecap:round;stroke-dasharray:none;stroke-opacity:1"
           id="circle23"
           cx="-48.809544"
           cy="194.18475"
           r="3.8364582" /><text
           xml:space="preserve"
           style="font-weight:600;font-size:4.6365px;font-family:Poppins;-inkscape-font-specification:'Poppins, Semi-Bold';text-align:start;writing-mode:lr-tb;direction:ltr;text-anchor:start;fill:#000000;fill-opacity:1;stroke:none;stroke-width:0.4;stroke-linecap:round;stroke-dasharray:none;stroke-opacity:1"
           x="-48.615978"
           y="195.851"
           id="text23"><tspan
             id="tspan23"
             style="font-style:normal;font-variant:normal;font-weight:bold;font-stretch:normal;font-family:Arial;-inkscape-font-specification:'Arial Bold';text-align:center;text-anchor:middle;fill:#000000;fill-opacity:1;stroke:none;stroke-width:0.4;stroke-dasharray:none;stroke-opacity:1"
             x="-48.615978"
             y="195.851">5</tspan></text></g><path
         style="fill:none;fill-opacity:1;stroke:#000000;stroke-width:0.3;stroke-linecap:square;stroke-dasharray:none;stroke-dashoffset:0;stroke-opacity:1;marker-end:url(#DartArrow)"
         d="M -48.809544,190.20214 V 175.14977"
         id="path24" /></g><g
       id="g27"
       transform="translate(65.293946,0.84189895)"
       data-label="No6"><g
         id="g26"
         style="fill:none;stroke:#000000;stroke-width:0.4;stroke-dasharray:none;stroke-opacity:1"><circle
           style="fill:none;stroke:#000000;stroke-width:0.4;stroke-linecap:round;stroke-dasharray:none;stroke-opacity:1"
           id="circle25"
           cx="-48.809544"
           cy="194.18475"
           r="3.8364582" /><text
           xml:space="preserve"
           style="font-weight:600;font-size:4.6365px;font-family:Poppins;-inkscape-font-specification:'Poppins, Semi-Bold';text-align:start;writing-mode:lr-tb;direction:ltr;text-anchor:start;fill:#000000;fill-opacity:1;stroke:none;stroke-width:0.4;stroke-linecap:round;stroke-dasharray:none;stroke-opacity:1"
           x="-48.615978"
           y="195.851"
           id="text25"><tspan
             id="tspan25"
             style="font-style:normal;font-variant:normal;font-weight:bold;font-stretch:normal;font-family:Arial;-inkscape-font-specification:'Arial Bold';text-align:center;text-anchor:middle;fill:#000000;fill-opacity:1;stroke:none;stroke-width:0.4;stroke-dasharray:none;stroke-opacity:1"
             x="-48.615978"
             y="195.851">6</tspan></text></g><path
         style="fill:none;fill-opacity:1;stroke:#000000;stroke-width:0.3;stroke-linecap:square;stroke-dasharray:none;stroke-dashoffset:0;stroke-opacity:1;marker-end:url(#DartArrow)"
         d="M -48.809544,190.14408 V 165.58567"
         id="path26" /></g><g
       id="g29"
       transform="translate(79.153615,6.7916642)"
       data-label="No7"><g
         id="g28"
         style="fill:none;stroke:#000000;stroke-width:0.4;stroke-dasharray:none;stroke-opacity:1"><circle
           style="fill:none;stroke:#000000;stroke-width:0.4;stroke-linecap:round;stroke-dasharray:none;stroke-opacity:1"
           id="circle27"
           cx="-48.809544"
           cy="194.18475"
           r="3.8364582" /><text
           xml:space="preserve"
           style="font-weight:600;font-size:4.6365px;font-family:Poppins;-inkscape-font-specification:'Poppins, Semi-Bold';text-align:start;writing-mode:lr-tb;direction:ltr;text-anchor:start;fill:#000000;fill-opacity:1;stroke:none;stroke-width:0.4;stroke-linecap:round;stroke-dasharray:none;stroke-opacity:1"
           x="-48.615978"
           y="195.851"
           id="text27"><tspan
             id="tspan27"
             style="font-style:normal;font-variant:normal;font-weight:bold;font-stretch:normal;font-family:Arial;-inkscape-font-specification:'Arial Bold';text-align:center;text-anchor:middle;fill:#000000;fill-opacity:1;stroke:none;stroke-width:0.4;stroke-dasharray:none;stroke-opacity:1"
             x="-48.615978"
             y="195.851">7</tspan></text></g><path
         style="fill:none;fill-opacity:1;stroke:#000000;stroke-width:0.3;stroke-linecap:square;stroke-dasharray:none;stroke-dashoffset:0;stroke-opacity:1;marker-end:url(#DartArrow)"
         d="M -48.809544,190.20214 V 175.14977"
         id="path28" /></g><g
       id="g31"
       transform="translate(92.54694,6.0263313)"
       data-label="No8"><g
         id="g30"
         style="fill:none;stroke:#000000;stroke-width:0.4;stroke-dasharray:none;stroke-opacity:1"><circle
           style="fill:none;stroke:#000000;stroke-width:0.4;stroke-linecap:round;stroke-dasharray:none;stroke-opacity:1"
           id="circle29"
           cx="-48.809544"
           cy="194.18475"
           r="3.8364582" /><text
           xml:space="preserve"
           style="font-weight:600;font-size:4.6365px;font-family:Poppins;-inkscape-font-specification:'Poppins, Semi-Bold';text-align:start;writing-mode:lr-tb;direction:ltr;text-anchor:start;fill:#000000;fill-opacity:1;stroke:none;stroke-width:0.4;stroke-linecap:round;stroke-dasharray:none;stroke-opacity:1"
           x="-48.615978"
           y="195.851"
           id="text29"><tspan
             id="tspan29"
             style="font-style:normal;font-variant:normal;font-weight:bold;font-stretch:normal;font-family:Arial;-inkscape-font-specification:'Arial Bold';text-align:center;text-anchor:middle;fill:#000000;fill-opacity:1;stroke:none;stroke-width:0.4;stroke-dasharray:none;stroke-opacity:1"
             x="-48.615978"
             y="195.851">8</tspan></text></g><path
         style="fill:none;fill-opacity:1;stroke:#000000;stroke-width:0.3;stroke-linecap:square;stroke-dasharray:none;stroke-dashoffset:0;stroke-opacity:1;marker-end:url(#DartArrow)"
         d="M -48.809544,190.20214 V 175.14977"
         id="path30" /></g><g
       id="g33"
       transform="translate(135.78825,4.1129991)"
       data-label="No9"><g
         id="g32"
         style="fill:none;stroke:#000000;stroke-width:0.4;stroke-dasharray:none;stroke-opacity:1"><circle
           style="fill:none;stroke:#000000;stroke-width:0.4;stroke-linecap:round;stroke-dasharray:none;stroke-opacity:1"
           id="circle31"
           cx="-48.809544"
           cy="194.18475"
           r="3.8364582" /><text
           xml:space="preserve"
           style="font-weight:600;font-size:4.6365px;font-family:Poppins;-inkscape-font-specification:'Poppins, Semi-Bold';text-align:start;writing-mode:lr-tb;direction:ltr;text-anchor:start;fill:#000000;fill-opacity:1;stroke:none;stroke-width:0.4;stroke-linecap:round;stroke-dasharray:none;stroke-opacity:1"
           x="-48.615978"
           y="195.851"
           id="text31"><tspan
             id="tspan31"
             style="font-style:normal;font-variant:normal;font-weight:bold;font-stretch:normal;font-family:Arial;-inkscape-font-specification:'Arial Bold';text-align:center;text-anchor:middle;fill:#000000;fill-opacity:1;stroke:none;stroke-width:0.4;stroke-dasharray:none;stroke-opacity:1"
             x="-48.615978"
             y="195.851">9</tspan></text></g><path
         style="fill:none;fill-opacity:1;stroke:#000000;stroke-width:0.3;stroke-linecap:square;stroke-dasharray:none;stroke-dashoffset:0;stroke-opacity:1;marker-end:url(#DartArrow)"
         d="M -48.809544,190.20214 V 175.14977"
         id="path32" /></g><g
       id="g35"
       transform="translate(197.97155,6.7916642)"
       data-label="No10"><g
         id="g34"
         style="fill:none;stroke:#000000;stroke-width:0.4;stroke-dasharray:none;stroke-opacity:1"><circle
           style="fill:none;stroke:#000000;stroke-width:0.4;stroke-linecap:round;stroke-dasharray:none;stroke-opacity:1"
           id="circle33"
           cx="-48.809544"
           cy="194.18475"
           r="3.8364582" /><text
           xml:space="preserve"
           style="font-weight:600;font-size:4.6365px;font-family:Poppins;-inkscape-font-specification:'Poppins, Semi-Bold';text-align:start;writing-mode:lr-tb;direction:ltr;text-anchor:start;fill:#000000;fill-opacity:1;stroke:none;stroke-width:0.4;stroke-linecap:round;stroke-dasharray:none;stroke-opacity:1"
           x="-48.615978"
           y="195.851"
           id="text33"><tspan
             id="tspan33"
             style="font-style:normal;font-variant:normal;font-weight:bold;font-stretch:normal;font-family:Arial;-inkscape-font-specification:'Arial Bold';text-align:center;text-anchor:middle;fill:#000000;fill-opacity:1;stroke:none;stroke-width:0.4;stroke-dasharray:none;stroke-opacity:1"
             x="-48.615978"
             y="195.851">10</tspan></text></g><path
         style="fill:none;fill-opacity:1;stroke:#000000;stroke-width:0.3;stroke-linecap:square;stroke-dasharray:none;stroke-dashoffset:0;stroke-opacity:1;marker-end:url(#DartArrow)"
         d="M -48.809544,190.20214 V 175.14977"
         id="path34" /><path
         style="fill:none;fill-opacity:1;stroke:#000000;stroke-width:0.3;stroke-linecap:square;stroke-dasharray:none;stroke-dashoffset:0;stroke-opacity:1;marker-end:url(#DartArrow)"
         d="m -48.626717,190.01081 16.07199,-15.05237"
         id="path36" /><path
         style="fill:none;fill-opacity:1;stroke:#000000;stroke-width:0.3;stroke-linecap:square;stroke-dasharray:none;stroke-dashoffset:0;stroke-opacity:1;marker-end:url(#DartArrow)"
         d="m -48.809544,190.20214 -16.07199,-15.05237"
         id="path37" /></g><g
       id="g38"
       transform="translate(319.03733,-90.402431)"
       data-label="No11"><g
         id="g37"
         style="fill:none;stroke:#000000;stroke-width:0.4;stroke-dasharray:none;stroke-opacity:1"><circle
           style="fill:none;stroke:#000000;stroke-width:0.4;stroke-linecap:round;stroke-dasharray:none;stroke-opacity:1"
           id="circle37"
           cx="-48.809544"
           cy="194.18475"
           r="3.8364582" /><text
           xml:space="preserve"
           style="font-weight:600;font-size:4.6365px;font-family:Poppins;-inkscape-font-specification:'Poppins, Semi-Bold';text-align:start;writing-mode:lr-tb;direction:ltr;text-anchor:start;fill:#000000;fill-opacity:1;stroke:none;stroke-width:0.4;stroke-linecap:round;stroke-dasharray:none;stroke-opacity:1"
           x="-48.615978"
           y="195.851"
           id="text37"><tspan
             id="tspan37"
             style="font-style:normal;font-variant:normal;font-weight:bold;font-stretch:normal;font-family:Arial;-inkscape-font-specification:'Arial Bold';text-align:center;text-anchor:middle;fill:#000000;fill-opacity:1;stroke:none;stroke-width:0.4;stroke-dasharray:none;stroke-opacity:1"
             x="-48.615978"
             y="195.851">11</tspan></text></g><path
         style="fill:none;fill-opacity:1;stroke:#000000;stroke-width:0.329406;stroke-linecap:square;stroke-dasharray:none;stroke-dashoffset:0;stroke-opacity:1;marker-end:url(#DartArrow)"
         d="m -51.092954,197.34565 -6.029123,9.56332"
         id="path38" /></g><g
       id="g40"
       transform="translate(296.12549,0.28633476)"
       data-label="No12"><g
         id="g39"
         style="fill:none;stroke:#000000;stroke-width:0.4;stroke-dasharray:none;stroke-opacity:1"><circle
           style="fill:none;stroke:#000000;stroke-width:0.4;stroke-linecap:round;stroke-dasharray:none;stroke-opacity:1"
           id="circle38"
           cx="-48.809544"
           cy="194.18475"
           r="3.8364582" /><text
           xml:space="preserve"
           style="font-weight:600;font-size:4.6365px;font-family:Poppins;-inkscape-font-specification:'Poppins, Semi-Bold';text-align:start;writing-mode:lr-tb;direction:ltr;text-anchor:start;fill:#000000;fill-opacity:1;stroke:none;stroke-width:0.4;stroke-linecap:round;stroke-dasharray:none;stroke-opacity:1"
           x="-48.615978"
           y="195.851"
           id="text38"><tspan
             id="tspan38"
             style="font-style:normal;font-variant:normal;font-weight:bold;font-stretch:normal;font-family:Arial;-inkscape-font-specification:'Arial Bold';text-align:center;text-anchor:middle;fill:#000000;fill-opacity:1;stroke:none;stroke-width:0.4;stroke-dasharray:none;stroke-opacity:1"
             x="-48.615978"
             y="195.851">12</tspan></text></g><path
         style="fill:none;fill-opacity:1;stroke:#000000;stroke-width:0.3;stroke-linecap:square;stroke-dasharray:none;stroke-dashoffset:0;stroke-opacity:1;marker-end:url(#DartArrow)"
         d="M -48.809544,190.20214 V 165.10478"
         id="path39" /></g><g
       id="g42"
       transform="translate(208.36764,-95.543566)"
       data-label="No13"><g
         id="g41"
         style="fill:none;stroke:#000000;stroke-width:0.4;stroke-dasharray:none;stroke-opacity:1"
         transform="translate(-2.1646882,-0.54117206)"><circle
           style="fill:none;stroke:#000000;stroke-width:0.4;stroke-linecap:round;stroke-dasharray:none;stroke-opacity:1"
           id="circle40"
           cx="-48.809544"
           cy="194.18475"
           r="3.8364582" /><text
           xml:space="preserve"
           style="font-weight:600;font-size:4.6365px;font-family:Poppins;-inkscape-font-specification:'Poppins, Semi-Bold';text-align:start;writing-mode:lr-tb;direction:ltr;text-anchor:start;fill:#000000;fill-opacity:1;stroke:none;stroke-width:0.4;stroke-linecap:round;stroke-dasharray:none;stroke-opacity:1"
           x="-48.615978"
           y="195.851"
           id="text40"><tspan
             id="tspan40"
             style="font-style:normal;font-variant:normal;font-weight:bold;font-stretch:normal;font-family:Arial;-inkscape-font-specification:'Arial Bold';text-align:center;text-anchor:middle;fill:#000000;fill-opacity:1;stroke:none;stroke-width:0.4;stroke-dasharray:none;stroke-opacity:1"
             x="-48.615978"
             y="195.851">13</tspan></text></g><path
         style="fill:none;fill-opacity:1;stroke:#000000;stroke-width:0.329406;stroke-linecap:square;stroke-dasharray:none;stroke-dashoffset:0;stroke-opacity:1;marker-end:url(#DartArrow)"
         d="m -51.092954,197.34565 -6.029123,9.56332"
         id="path41" /><path
         style="fill:none;fill-opacity:1;stroke:#000000;stroke-width:0.329406;stroke-linecap:square;stroke-dasharray:none;stroke-dashoffset:0;stroke-opacity:1;marker-end:url(#DartArrow)"
         d="m -51.092954,197.34565 5.33549,23.09262"
         id="path42" /></g><g
       id="g44"
       transform="translate(88.274336,-90.110682)"
       data-label="No14"><g
         id="g43"
         style="fill:none;stroke:#000000;stroke-width:0.4;stroke-dasharray:none;stroke-opacity:1"
         transform="translate(-0.81175805,0.54117204)"><circle
           style="fill:none;stroke:#000000;stroke-width:0.4;stroke-linecap:round;stroke-dasharray:none;stroke-opacity:1"
           id="circle42"
           cx="-48.809544"
           cy="194.18475"
           r="3.8364582" /><text
           xml:space="preserve"
           style="font-weight:600;font-size:4.6365px;font-family:Poppins;-inkscape-font-specification:'Poppins, Semi-Bold';text-align:start;writing-mode:lr-tb;direction:ltr;text-anchor:start;fill:#000000;fill-opacity:1;stroke:none;stroke-width:0.4;stroke-linecap:round;stroke-dasharray:none;stroke-opacity:1"
           x="-48.615978"
           y="195.851"
           id="text42"><tspan
             id="tspan42"
             style="font-style:normal;font-variant:normal;font-weight:bold;font-stretch:normal;font-family:Arial;-inkscape-font-specification:'Arial Bold';text-align:center;text-anchor:middle;fill:#000000;fill-opacity:1;stroke:none;stroke-width:0.4;stroke-dasharray:none;stroke-opacity:1"
             x="-48.615978"
             y="195.851">14</tspan></text></g><path
         style="fill:none;fill-opacity:1;stroke:#000000;stroke-width:0.329406;stroke-linecap:square;stroke-dasharray:none;stroke-dashoffset:0;stroke-opacity:1;marker-end:url(#DartArrow)"
         d="m -48.892622,198.11098 4.15233,12.23354"
         id="path43" /></g><g
       id="g46"
       transform="translate(135.62689,-94.440059)"
       data-label="No15"><g
         id="g45"
         style="fill:none;stroke:#000000;stroke-width:0.4;stroke-dasharray:none;stroke-opacity:1"><circle
           style="fill:none;stroke:#000000;stroke-width:0.4;stroke-linecap:round;stroke-dasharray:none;stroke-opacity:1"
           id="circle44"
           cx="-48.809544"
           cy="194.18475"
           r="3.8364582" /><text
           xml:space="preserve"
           style="font-weight:600;font-size:4.6365px;font-family:Poppins;-inkscape-font-specification:'Poppins, Semi-Bold';text-align:start;writing-mode:lr-tb;direction:ltr;text-anchor:start;fill:#000000;fill-opacity:1;stroke:none;stroke-width:0.4;stroke-linecap:round;stroke-dasharray:none;stroke-opacity:1"
           x="-48.615978"
           y="195.851"
           id="text44"><tspan
             id="tspan44"
             style="font-style:normal;font-variant:normal;font-weight:bold;font-stretch:normal;font-family:Arial;-inkscape-font-specification:'Arial Bold';text-align:center;text-anchor:middle;fill:#000000;fill-opacity:1;stroke:none;stroke-width:0.4;stroke-dasharray:none;stroke-opacity:1"
             x="-48.615978"
             y="195.851">15</tspan></text></g><path
         style="fill:none;fill-opacity:1;stroke:#000000;stroke-width:0.329406;stroke-linecap:square;stroke-dasharray:none;stroke-dashoffset:0;stroke-opacity:1;marker-end:url(#DartArrow)"
         d="m -48.892622,198.11098 0.09354,7.36299"
         id="path45" /></g><g
       id="g48"
       transform="translate(85.027302,-77.393139)"
       data-label="No16"><g
         id="g47"
         style="fill:none;stroke:#000000;stroke-width:0.4;stroke-dasharray:none;stroke-opacity:1"><circle
           style="fill:none;stroke:#000000;stroke-width:0.4;stroke-linecap:round;stroke-dasharray:none;stroke-opacity:1"
           id="circle46"
           cx="-48.809544"
           cy="194.18475"
           r="3.8364582" /><text
           xml:space="preserve"
           style="font-weight:600;font-size:4.6365px;font-family:Poppins;-inkscape-font-specification:'Poppins, Semi-Bold';text-align:start;writing-mode:lr-tb;direction:ltr;text-anchor:start;fill:#000000;fill-opacity:1;stroke:none;stroke-width:0.4;stroke-linecap:round;stroke-dasharray:none;stroke-opacity:1"
           x="-48.615978"
           y="195.851"
           id="text46"><tspan
             id="tspan46"
             style="font-style:normal;font-variant:normal;font-weight:bold;font-stretch:normal;font-family:Arial;-inkscape-font-specification:'Arial Bold';text-align:center;text-anchor:middle;fill:#000000;fill-opacity:1;stroke:none;stroke-width:0.4;stroke-dasharray:none;stroke-opacity:1"
             x="-48.615978"
             y="195.851">16</tspan></text></g><path
         style="fill:none;fill-opacity:1;stroke:#000000;stroke-width:0.329406;stroke-linecap:square;stroke-dasharray:none;stroke-dashoffset:0;stroke-opacity:1;marker-end:url(#DartArrow)"
         d="m -48.892622,198.11098 0.09354,27.38635"
         id="path47" /></g><g
       id="g50"
       transform="translate(74.474447,-86.051892)"
       data-label="No17"><g
         id="g49"
         style="fill:none;stroke:#000000;stroke-width:0.4;stroke-dasharray:none;stroke-opacity:1"><circle
           style="fill:none;stroke:#000000;stroke-width:0.4;stroke-linecap:round;stroke-dasharray:none;stroke-opacity:1"
           id="circle48"
           cx="-48.809544"
           cy="194.18475"
           r="3.8364582" /><text
           xml:space="preserve"
           style="font-weight:600;font-size:4.6365px;font-family:Poppins;-inkscape-font-specification:'Poppins, Semi-Bold';text-align:start;writing-mode:lr-tb;direction:ltr;text-anchor:start;fill:#000000;fill-opacity:1;stroke:none;stroke-width:0.4;stroke-linecap:round;stroke-dasharray:none;stroke-opacity:1"
           x="-48.615978"
           y="195.851"
           id="text48"><tspan
             id="tspan48"
             style="font-style:normal;font-variant:normal;font-weight:bold;font-stretch:normal;font-family:Arial;-inkscape-font-specification:'Arial Bold';text-align:center;text-anchor:middle;fill:#000000;fill-opacity:1;stroke:none;stroke-width:0.4;stroke-dasharray:none;stroke-opacity:1"
             x="-48.615978"
             y="195.851">17</tspan></text></g><path
         style="fill:none;fill-opacity:1;stroke:#000000;stroke-width:0.329406;stroke-linecap:square;stroke-dasharray:none;stroke-dashoffset:0;stroke-opacity:1;marker-end:url(#DartArrow)"
         d="m -48.892622,198.11098 0.09354,7.36299"
         id="path49" /></g></g></svg>
